G04*
G04 #@! TF.GenerationSoftware,Altium Limited,Altium Designer,21.5.1 (32)*
G04*
G04 Layer_Physical_Order=2*
G04 Layer_Color=16711680*
%FSLAX25Y25*%
%MOIN*%
G70*
G04*
G04 #@! TF.SameCoordinates,7B92BF34-365D-4222-AD46-ED6CFA3767D4*
G04*
G04*
G04 #@! TF.FilePolarity,Positive*
G04*
G01*
G75*
%ADD17C,0.27559*%
%ADD18C,0.07000*%
%ADD19R,0.09000X0.09000*%
%ADD20C,0.09000*%
%ADD21C,0.06000*%
D17*
X521000Y287500D02*
D03*
X683000D02*
D03*
Y116500D02*
D03*
X521000D02*
D03*
D18*
X644500Y131500D02*
D03*
X634500D02*
D03*
X573000D02*
D03*
X563000D02*
D03*
D19*
X640500Y241000D02*
D03*
X568500D02*
D03*
D20*
X640500Y191000D02*
D03*
X568500D02*
D03*
D21*
X553500Y141000D02*
X563000Y131500D01*
X553500Y226000D02*
X568500Y241000D01*
X553500Y141000D02*
Y226000D01*
X573000Y131500D02*
Y185688D01*
X568500Y190188D02*
X573000Y185688D01*
X568500Y190188D02*
Y191000D01*
X625500Y140500D02*
X634500Y131500D01*
X625500Y226000D02*
X640500Y241000D01*
X625500Y140500D02*
Y226000D01*
X644500Y131500D02*
Y186188D01*
X640500Y190188D02*
X644500Y186188D01*
X640500Y190188D02*
Y191000D01*
M02*
