G04*
G04 #@! TF.GenerationSoftware,Altium Limited,Altium Designer,21.5.1 (32)*
G04*
G04 Layer_Color=65535*
%FSLAX25Y25*%
%MOIN*%
G70*
G04*
G04 #@! TF.SameCoordinates,7B92BF34-365D-4222-AD46-ED6CFA3767D4*
G04*
G04*
G04 #@! TF.FilePolarity,Positive*
G04*
G01*
G75*
%ADD10C,0.01575*%
%ADD11C,0.01000*%
%ADD12C,0.00500*%
D10*
X641287Y273087D02*
G03*
X641287Y273087I-787J0D01*
G01*
X569287D02*
G03*
X569287Y273087I-787J0D01*
G01*
D11*
X652000Y125500D02*
Y137500D01*
X628000D02*
X652000D01*
X628000Y125500D02*
Y137500D01*
Y125500D02*
X652000D01*
X580500D02*
Y137500D01*
X556500D02*
X580500D01*
X556500Y125500D02*
Y137500D01*
Y125500D02*
X580500D01*
X557000Y141000D02*
Y146998D01*
X559999D01*
X560999Y145998D01*
Y143999D01*
X559999Y142999D01*
X557000D01*
X562998Y146998D02*
Y141000D01*
Y143999D01*
X566997D01*
Y146998D01*
Y141000D01*
X572995D02*
X568996D01*
X572995Y144999D01*
Y145998D01*
X571995Y146998D01*
X569996D01*
X568996Y145998D01*
X628500Y141000D02*
Y146998D01*
X631499D01*
X632499Y145998D01*
Y143999D01*
X631499Y142999D01*
X628500D01*
X634498Y146998D02*
Y141000D01*
Y143999D01*
X638497D01*
Y146998D01*
Y141000D01*
X640496D02*
X642495D01*
X641496D01*
Y146998D01*
X640496Y145998D01*
X552399Y282698D02*
X551399Y283698D01*
X549400D01*
X548400Y282698D01*
Y278700D01*
X549400Y277700D01*
X551399D01*
X552399Y278700D01*
X554398Y283698D02*
X558397D01*
X556397D01*
Y277700D01*
X564395D02*
X560396D01*
X564395Y281699D01*
Y282698D01*
X563395Y283698D01*
X561396D01*
X560396Y282698D01*
X624399D02*
X623399Y283698D01*
X621400D01*
X620400Y282698D01*
Y278700D01*
X621400Y277700D01*
X623399D01*
X624399Y278700D01*
X626398Y283698D02*
X630397D01*
X628397D01*
Y277700D01*
X632396D02*
X634396D01*
X633396D01*
Y283698D01*
X632396Y282698D01*
D12*
X620500Y269750D02*
X660500D01*
Y162250D02*
Y269750D01*
X620500Y162250D02*
X660500D01*
X620500D02*
Y269750D01*
X548500D02*
X588500D01*
Y162250D02*
Y269750D01*
X548500Y162250D02*
X588500D01*
X548500D02*
Y269750D01*
M02*
